<mxfile host="drawio-plugin" modified="2023-03-01T03:02:23.092Z" agent="5.0 (X11; Linux aarch64) AppleWebKit/537.36 (KHTML, like Gecko) Chrome/104.0.5112.102 Safari/537.36" etag="zdtHBvLA5-neQIYIdse9" version="20.5.3" type="embed"><diagram id="23iRSUPoRavnBvh4doch" name="Page-1"><mxGraphModel dx="922" dy="715" grid="1" gridSize="10" guides="1" tooltips="1" connect="1" arrows="1" fold="1" page="1" pageScale="1" pageWidth="827" pageHeight="1169" math="0" shadow="0"><root><mxCell id="0"/><mxCell id="1" parent="0"/><mxCell id="3" value="&lt;br&gt;«interface»&lt;br&gt;&lt;b&gt;BeanFactory&lt;br&gt;&lt;br&gt;&lt;/b&gt;" style="html=1;" parent="1" vertex="1"><mxGeometry x="335" y="210" width="110" height="50" as="geometry"/></mxCell><mxCell id="12" value="&lt;br&gt;«abstract class»&lt;br&gt;&lt;b&gt;AbstractBeanFactory&lt;br&gt;&lt;br&gt;&lt;/b&gt;" style="html=1;" parent="1" vertex="1"><mxGeometry x="310" y="320" width="440" height="50" as="geometry"/></mxCell><mxCell id="15" value="«abstract class»&lt;br&gt;&lt;b&gt;AbstractAutowireCapableBeanFactory&lt;/b&gt;" style="html=1;" parent="1" vertex="1"><mxGeometry x="310" y="430" width="440" height="50" as="geometry"/></mxCell><mxCell id="19" value="«interface»&lt;br&gt;&lt;b&gt;BeanDefinitionRegistry&lt;/b&gt;" style="html=1;" parent="1" vertex="1"><mxGeometry x="40" y="340" width="160" height="50" as="geometry"/></mxCell><mxCell id="20" value="«class»&lt;br&gt;&lt;b&gt;DefaultListableBeanFactory&lt;/b&gt;" style="html=1;" parent="1" vertex="1"><mxGeometry x="70" y="550" width="740" height="50" as="geometry"/></mxCell><mxCell id="21" value="«interface»&lt;br&gt;&lt;b&gt;SingletonBeanRegistry&lt;/b&gt;" style="html=1;" parent="1" vertex="1"><mxGeometry x="550" y="120" width="160" height="50" as="geometry"/></mxCell><mxCell id="22" value="«class»&lt;br&gt;&lt;b&gt;DefaultSingletonBeanRegistry&lt;/b&gt;" style="html=1;" parent="1" vertex="1"><mxGeometry x="530" y="210" width="200" height="50" as="geometry"/></mxCell><mxCell id="25" value="&lt;br&gt;«class»&lt;br&gt;&lt;b&gt;BeanDefinition&lt;br&gt;&lt;br&gt;&lt;/b&gt;" style="html=1;" parent="1" vertex="1"><mxGeometry x="70" y="140" width="110" height="50" as="geometry"/></mxCell><object label="" id="27"><mxCell style="endArrow=block;dashed=1;endFill=0;endSize=12;html=1;rounded=0;entryX=0.5;entryY=1;entryDx=0;entryDy=0;exitX=0.184;exitY=-0.06;exitDx=0;exitDy=0;exitPerimeter=0;" parent="1" source="12" target="3" edge="1"><mxGeometry width="160" relative="1" as="geometry"><mxPoint x="390" y="310" as="sourcePoint"/><mxPoint x="445" y="290" as="targetPoint"/></mxGeometry></mxCell></object><mxCell id="28" value="Extends" style="endArrow=block;endSize=16;endFill=0;html=1;rounded=0;entryX=0.5;entryY=1;entryDx=0;entryDy=0;exitX=0.5;exitY=0;exitDx=0;exitDy=0;" parent="1" source="15" target="12" edge="1"><mxGeometry width="160" relative="1" as="geometry"><mxPoint x="389" y="430" as="sourcePoint"/><mxPoint x="505" y="380" as="targetPoint"/></mxGeometry></mxCell><mxCell id="30" value="" style="endArrow=block;dashed=1;endFill=0;endSize=12;html=1;rounded=0;exitX=0.5;exitY=0;exitDx=0;exitDy=0;entryX=0.5;entryY=1;entryDx=0;entryDy=0;" parent="1" source="22" target="21" edge="1"><mxGeometry width="160" relative="1" as="geometry"><mxPoint x="580" y="190" as="sourcePoint"/><mxPoint x="740" y="190" as="targetPoint"/></mxGeometry></mxCell><mxCell id="31" value="" style="endArrow=block;dashed=1;endFill=0;endSize=12;html=1;rounded=0;entryX=0.5;entryY=1;entryDx=0;entryDy=0;exitX=0.068;exitY=0.02;exitDx=0;exitDy=0;exitPerimeter=0;" parent="1" source="20" target="19" edge="1"><mxGeometry width="160" relative="1" as="geometry"><mxPoint x="110" y="530" as="sourcePoint"/><mxPoint x="270" y="390" as="targetPoint"/></mxGeometry></mxCell><mxCell id="34" value="" style="endArrow=none;dashed=1;html=1;rounded=0;" parent="1" edge="1"><mxGeometry width="50" height="50" relative="1" as="geometry"><mxPoint x="280" y="540" as="sourcePoint"/><mxPoint x="280" y="90" as="targetPoint"/></mxGeometry></mxCell><mxCell id="36" value="&lt;div style=&quot;&quot;&gt;&lt;pre style=&quot;&quot;&gt;&lt;b&gt;&lt;font style=&quot;font-size: 16px;&quot;&gt;注册&lt;/font&gt;&lt;/b&gt;&lt;/pre&gt;&lt;/div&gt;" style="text;html=1;strokeColor=none;fillColor=none;align=center;verticalAlign=middle;whiteSpace=wrap;rounded=0;" parent="1" vertex="1"><mxGeometry x="90" y="280" width="60" height="30" as="geometry"/></mxCell><mxCell id="37" value="Extends" style="endArrow=block;endSize=16;endFill=0;html=1;rounded=0;entryX=0.5;entryY=1;entryDx=0;entryDy=0;exitX=0.727;exitY=0;exitDx=0;exitDy=0;exitPerimeter=0;" parent="1" source="12" target="22" edge="1"><mxGeometry width="160" relative="1" as="geometry"><mxPoint x="630" y="320" as="sourcePoint"/><mxPoint x="740" y="290" as="targetPoint"/></mxGeometry></mxCell><mxCell id="40" value="&lt;div style=&quot;&quot;&gt;&lt;pre style=&quot;&quot;&gt;&lt;b&gt;&lt;font style=&quot;font-size: 16px;&quot;&gt;获取&lt;/font&gt;&lt;/b&gt;&lt;/pre&gt;&lt;/div&gt;" style="text;html=1;strokeColor=none;fillColor=none;align=center;verticalAlign=middle;whiteSpace=wrap;rounded=0;" parent="1" vertex="1"><mxGeometry x="440" y="70" width="60" height="30" as="geometry"/></mxCell><mxCell id="42" value="" style="endArrow=none;dashed=1;html=1;rounded=0;" parent="1" edge="1"><mxGeometry width="50" height="50" relative="1" as="geometry"><mxPoint x="15" y="240" as="sourcePoint"/><mxPoint x="235" y="240" as="targetPoint"/></mxGeometry></mxCell><mxCell id="45" value="&lt;div style=&quot;&quot;&gt;&lt;pre style=&quot;&quot;&gt;&lt;b&gt;&lt;font style=&quot;font-size: 16px;&quot;&gt;定义&lt;/font&gt;&lt;/b&gt;&lt;/pre&gt;&lt;/div&gt;" style="text;html=1;strokeColor=none;fillColor=none;align=center;verticalAlign=middle;whiteSpace=wrap;rounded=0;" parent="1" vertex="1"><mxGeometry x="95" y="70" width="60" height="30" as="geometry"/></mxCell><mxCell id="46" value="«interface»&lt;br&gt;&lt;b&gt;InstantiationStrategy&lt;/b&gt;" style="html=1;" vertex="1" parent="1"><mxGeometry x="890" y="210" width="450" height="50" as="geometry"/></mxCell><mxCell id="47" value="«class»&lt;br&gt;&lt;b&gt;SimpleInstantiationStrategy&lt;/b&gt;" style="html=1;" vertex="1" parent="1"><mxGeometry x="890" y="320" width="181" height="50" as="geometry"/></mxCell><mxCell id="48" value="«class»&lt;br&gt;&lt;b&gt;CglibSubclassingInstantiationStrategy&lt;/b&gt;" style="html=1;" vertex="1" parent="1"><mxGeometry x="1091" y="320" width="249" height="50" as="geometry"/></mxCell><mxCell id="49" value="" style="endArrow=block;dashed=1;endFill=0;endSize=12;html=1;rounded=0;exitX=0.5;exitY=0;exitDx=0;exitDy=0;" edge="1" parent="1" source="47"><mxGeometry width="160" relative="1" as="geometry"><mxPoint x="1000" y="470" as="sourcePoint"/><mxPoint x="981" y="260" as="targetPoint"/></mxGeometry></mxCell><mxCell id="50" value="" style="endArrow=block;dashed=1;endFill=0;endSize=12;html=1;rounded=0;exitX=0.5;exitY=0;exitDx=0;exitDy=0;" edge="1" parent="1"><mxGeometry width="160" relative="1" as="geometry"><mxPoint x="1215" y="320" as="sourcePoint"/><mxPoint x="1215.5" y="260" as="targetPoint"/></mxGeometry></mxCell><mxCell id="51" value="&lt;div style=&quot;&quot;&gt;&lt;pre style=&quot;&quot;&gt;&lt;div style=&quot;&quot;&gt;&lt;pre style=&quot;&quot;&gt;&lt;b&gt;&lt;font style=&quot;font-size: 16px;&quot;&gt;实例化&lt;/font&gt;&lt;/b&gt;&lt;/pre&gt;&lt;/div&gt;&lt;/pre&gt;&lt;/div&gt;" style="text;html=1;strokeColor=none;fillColor=none;align=center;verticalAlign=middle;whiteSpace=wrap;rounded=0;" vertex="1" parent="1"><mxGeometry x="1060" y="160" width="60" height="30" as="geometry"/></mxCell><mxCell id="52" value="Extends" style="endArrow=block;endSize=16;endFill=0;html=1;rounded=0;entryX=0.5;entryY=1;entryDx=0;entryDy=0;exitX=0.62;exitY=0;exitDx=0;exitDy=0;exitPerimeter=0;" edge="1" parent="1" source="20"><mxGeometry width="160" relative="1" as="geometry"><mxPoint x="529" y="540" as="sourcePoint"/><mxPoint x="529" y="480" as="targetPoint"/></mxGeometry></mxCell><mxCell id="53" value="Use" style="endArrow=open;dashed=1;html=1;rounded=0;fontSize=16;entryX=0.5;entryY=1;entryDx=0;entryDy=0;" edge="1" parent="1" target="48"><mxGeometry x="-0.6294" y="-4" width="160" relative="1" as="geometry"><mxPoint x="760" y="454.5" as="sourcePoint"/><mxPoint x="1220" y="380" as="targetPoint"/><Array as="points"><mxPoint x="1216" y="460"/></Array><mxPoint as="offset"/></mxGeometry></mxCell><mxCell id="58" value="" style="endArrow=open;dashed=1;html=1;dashPattern=1 3;strokeWidth=1;rounded=0;fontSize=16;endFill=0;entryX=0.5;entryY=1;entryDx=0;entryDy=0;" edge="1" parent="1" target="47"><mxGeometry width="50" height="50" relative="1" as="geometry"><mxPoint x="980" y="460" as="sourcePoint"/><mxPoint x="980" y="390" as="targetPoint"/></mxGeometry></mxCell></root></mxGraphModel></diagram></mxfile>